<svg xmlns="http://www.w3.org/2000/svg" xmlns:xlink="http://www.w3.org/1999/xlink" width="500" zoomAndPan="magnify" viewBox="0 0 375 374.999991" height="500" preserveAspectRatio="xMidYMid meet" version="1.0"><defs><g/><clipPath id="b6944b89fa"><path d="M 27.011719 25.371094 L 290 25.371094 L 290 349.371094 L 27.011719 349.371094 Z M 27.011719 25.371094 " clip-rule="nonzero"/></clipPath></defs><g clip-path="url(#b6944b89fa)"><path fill="#15b881" d="M 188.71875 78.683594 L 188.472656 78.6875 L 187.964844 78.691406 L 187.671875 78.695312 L 187.207031 78.703125 L 186.902344 78.710938 L 186.449219 78.722656 L 186.144531 78.730469 L 185.683594 78.746094 L 185.386719 78.757812 L 184.898438 78.773438 L 184.636719 78.789062 L 184.019531 78.816406 L 183.886719 78.820312 L 183.144531 78.859375 L 182.921875 78.875 L 182.398438 78.90625 L 182.117188 78.925781 C 182.117188 78.925781 181.777344 78.949219 181.652344 78.957031 C 181.550781 78.964844 181.453125 78.972656 181.351562 78.980469 C 181.226562 78.992188 181.03125 79.003906 180.90625 79.015625 C 180.804688 79.019531 180.703125 79.03125 180.597656 79.035156 C 180.476562 79.050781 180.277344 79.0625 180.152344 79.074219 C 180.054688 79.082031 179.953125 79.09375 179.855469 79.101562 C 179.730469 79.109375 179.515625 79.132812 179.390625 79.140625 C 179.296875 79.152344 179.207031 79.160156 179.113281 79.167969 C 178.980469 79.179688 178.699219 79.207031 178.574219 79.222656 C 178.511719 79.226562 178.441406 79.234375 178.375 79.238281 C 178.21875 79.253906 177.796875 79.300781 177.644531 79.316406 C 177.578125 79.324219 177.515625 79.332031 177.453125 79.339844 C 177.328125 79.351562 177.046875 79.382812 176.910156 79.398438 C 176.816406 79.410156 176.726562 79.421875 176.632812 79.429688 C 176.507812 79.445312 176.300781 79.46875 176.175781 79.484375 C 176.074219 79.5 175.972656 79.511719 175.875 79.523438 C 175.75 79.539062 175.566406 79.5625 175.441406 79.578125 C 175.335938 79.589844 175.234375 79.601562 175.128906 79.617188 C 175.007812 79.632812 174.824219 79.660156 174.707031 79.671875 C 174.601562 79.6875 174.5 79.703125 174.398438 79.714844 C 174.273438 79.734375 174.082031 79.761719 173.960938 79.777344 C 173.863281 79.792969 173.765625 79.804688 173.667969 79.820312 C 173.539062 79.839844 173.308594 79.875 173.1875 79.890625 C 173.105469 79.90625 173.023438 79.917969 172.941406 79.929688 C 172.777344 79.953125 172.371094 80.019531 172.226562 80.039062 C 172.171875 80.050781 172.121094 80.054688 172.070312 80.066406 C 171.949219 80.085938 171.644531 80.136719 171.5 80.15625 C 171.410156 80.171875 171.316406 80.1875 171.222656 80.203125 C 171.101562 80.222656 170.90625 80.257812 170.78125 80.28125 C 170.679688 80.296875 170.578125 80.316406 170.472656 80.332031 C 170.355469 80.355469 170.179688 80.382812 170.0625 80.40625 C 169.957031 80.425781 169.847656 80.445312 169.742188 80.464844 C 169.625 80.484375 169.460938 80.515625 169.339844 80.539062 C 169.230469 80.558594 169.125 80.578125 169.023438 80.601562 C 168.902344 80.621094 168.730469 80.65625 168.613281 80.675781 C 168.511719 80.699219 168.410156 80.71875 168.304688 80.738281 C 168.179688 80.761719 167.992188 80.800781 167.871094 80.824219 C 167.78125 80.84375 167.683594 80.863281 167.589844 80.878906 C 167.449219 80.910156 167.152344 80.972656 167.035156 80.996094 C 166.984375 81.007812 166.921875 81.019531 166.882812 81.027344 C 166.855469 81.035156 166.828125 81.039062 166.804688 81.042969 C 166.6875 81.070312 166.332031 81.144531 166.183594 81.179688 C 166.089844 81.195312 165.996094 81.21875 165.90625 81.238281 C 165.785156 81.265625 165.597656 81.308594 165.476562 81.335938 C 165.371094 81.355469 165.269531 81.382812 165.164062 81.40625 C 165.046875 81.429688 164.890625 81.46875 164.769531 81.496094 C 164.660156 81.519531 164.554688 81.542969 164.449219 81.574219 C 164.328125 81.601562 164.179688 81.632812 164.0625 81.660156 C 163.957031 81.6875 163.847656 81.714844 163.738281 81.742188 C 163.621094 81.769531 163.472656 81.804688 163.355469 81.835938 C 163.246094 81.863281 163.140625 81.886719 163.035156 81.914062 C 162.917969 81.941406 162.753906 81.984375 162.636719 82.011719 C 162.535156 82.039062 162.433594 82.066406 162.332031 82.089844 C 162.207031 82.125 161.996094 82.179688 161.878906 82.210938 C 161.796875 82.230469 161.71875 82.25 161.632812 82.269531 C 161.484375 82.3125 161.117188 82.410156 160.957031 82.453125 C 160.867188 82.476562 160.777344 82.5 160.683594 82.527344 C 160.570312 82.558594 160.386719 82.609375 160.265625 82.644531 C 160.164062 82.671875 160.058594 82.703125 159.957031 82.730469 C 159.839844 82.761719 159.6875 82.804688 159.570312 82.835938 C 159.464844 82.867188 159.359375 82.898438 159.253906 82.929688 C 159.136719 82.964844 158.992188 83.003906 158.878906 83.039062 C 158.773438 83.066406 158.664062 83.101562 158.554688 83.132812 C 158.441406 83.167969 158.300781 83.210938 158.183594 83.242188 C 158.078125 83.273438 157.972656 83.308594 157.867188 83.339844 C 157.75 83.371094 157.597656 83.421875 157.484375 83.457031 C 157.382812 83.488281 157.28125 83.515625 157.179688 83.546875 C 157.058594 83.589844 156.871094 83.648438 156.757812 83.679688 C 156.671875 83.707031 156.582031 83.734375 156.496094 83.765625 C 156.34375 83.8125 155.980469 83.929688 155.832031 83.976562 C 155.757812 84 155.679688 84.027344 155.601562 84.054688 C 155.488281 84.089844 155.273438 84.160156 155.152344 84.199219 C 155.054688 84.230469 154.960938 84.265625 154.863281 84.296875 C 154.75 84.332031 154.585938 84.386719 154.46875 84.429688 C 154.371094 84.460938 154.273438 84.496094 154.171875 84.53125 C 154.058594 84.570312 153.902344 84.621094 153.792969 84.664062 C 153.691406 84.695312 153.488281 84.765625 153.488281 84.765625 L 153.105469 84.902344 L 152.8125 85.007812 L 152.417969 85.148438 L 152.140625 85.246094 L 151.699219 85.410156 L 151.472656 85.492188 L 150.808594 85.746094 L 150.742188 85.769531 L 150.136719 86 L 149.925781 86.085938 L 149.472656 86.261719 L 149.226562 86.359375 L 148.800781 86.53125 L 148.550781 86.628906 L 148.128906 86.804688 L 147.890625 86.902344 L 147.441406 87.085938 L 147.230469 87.175781 L 146.71875 87.394531 L 146.574219 87.453125 L 145.914062 87.742188 L 145.230469 88.042969 L 145.183594 88.0625 L 144.574219 88.335938 L 144.449219 88.394531 L 143.910156 88.636719 L 143.769531 88.707031 L 143.242188 88.953125 L 143.109375 89.015625 L 142.558594 89.277344 L 142.460938 89.320312 L 141.816406 89.632812 C 105.589844 107.285156 80.605469 144.421875 80.605469 187.335938 C 80.605469 230.28125 105.632812 267.445312 141.914062 285.082031 L 142.5625 285.394531 L 142.617188 285.421875 L 143.222656 285.707031 L 143.296875 285.742188 L 143.902344 286.023438 L 143.960938 286.050781 L 144.628906 286.351562 C 144.855469 286.457031 145.082031 286.558594 145.3125 286.660156 L 145.976562 286.953125 L 146.097656 287.003906 L 146.625 287.234375 L 146.828125 287.320312 L 147.277344 287.511719 L 147.515625 287.613281 L 147.9375 287.785156 L 148.191406 287.890625 L 148.597656 288.054688 L 148.859375 288.164062 L 149.273438 288.324219 L 149.523438 288.425781 L 150.007812 288.617188 L 150.199219 288.6875 L 150.835938 288.933594 L 151.125 289.042969 L 151.5 289.183594 L 151.820312 289.300781 L 152.164062 289.429688 L 152.5 289.550781 L 152.832031 289.667969 L 153.175781 289.789062 L 153.503906 289.90625 L 153.851562 290.027344 L 154.171875 290.140625 L 154.527344 290.257812 L 154.839844 290.363281 L 155.203125 290.488281 L 155.84375 290.695312 L 156.210938 290.8125 L 156.515625 290.910156 L 156.886719 291.027344 L 157.195312 291.125 L 157.566406 291.238281 L 157.878906 291.332031 L 158.25 291.445312 L 158.5625 291.535156 L 158.933594 291.648438 L 159.246094 291.734375 L 159.621094 291.84375 L 159.929688 291.933594 L 160.3125 292.039062 L 160.609375 292.121094 L 160.980469 292.222656 L 161.339844 292.316406 L 161.648438 292.402344 L 162.023438 292.496094 L 162.347656 292.582031 L 162.714844 292.675781 L 163.046875 292.757812 L 163.414062 292.847656 L 163.746094 292.929688 L 164.109375 293.015625 L 164.449219 293.097656 L 164.8125 293.183594 L 165.160156 293.261719 L 165.515625 293.34375 L 165.890625 293.425781 L 166.21875 293.5 L 166.890625 293.644531 L 167.21875 293.707031 L 167.605469 293.789062 L 167.941406 293.859375 L 168.316406 293.933594 L 168.660156 294 L 169.03125 294.070312 L 169.375 294.136719 L 169.753906 294.203125 L 170.09375 294.265625 L 170.484375 294.335938 L 170.8125 294.394531 L 171.234375 294.464844 L 171.527344 294.515625 L 172.230469 294.628906 L 172.441406 294.664062 L 172.953125 294.742188 L 173.25 294.785156 L 173.679688 294.851562 L 173.996094 294.894531 L 174.410156 294.953125 L 174.730469 295 L 175.144531 295.050781 L 175.464844 295.09375 L 175.886719 295.144531 L 176.195312 295.1875 L 176.648438 295.238281 L 176.925781 295.273438 L 177.507812 295.335938 L 177.660156 295.351562 L 178.386719 295.429688 L 178.628906 295.453125 L 179.125 295.503906 L 179.414062 295.527344 L 179.863281 295.566406 L 180.167969 295.59375 L 180.605469 295.632812 L 180.917969 295.65625 L 181.359375 295.6875 L 181.660156 295.710938 L 182.128906 295.742188 L 182.410156 295.761719 L 182.945312 295.796875 L 183.152344 295.808594 L 183.894531 295.847656 L 184.0625 295.855469 L 184.640625 295.882812 L 184.914062 295.894531 L 185.394531 295.914062 L 185.6875 295.921875 L 186.144531 295.9375 L 186.453125 295.945312 L 186.902344 295.957031 L 187.210938 295.964844 L 187.675781 295.972656 L 187.964844 295.976562 L 188.472656 295.984375 L 189.476562 295.984375 C 189.476562 295.984375 190.175781 295.984375 190.175781 295.984375 L 190.359375 295.984375 L 191 295.976562 L 191.066406 295.976562 L 191.761719 295.964844 L 191.941406 295.957031 L 192.542969 295.945312 L 192.652344 295.941406 L 193.34375 295.917969 L 193.511719 295.914062 L 194.097656 295.890625 L 194.230469 295.882812 L 194.917969 295.855469 L 195.074219 295.84375 L 195.65625 295.8125 L 195.804688 295.808594 L 196.492188 295.765625 L 196.628906 295.753906 L 197.210938 295.714844 L 197.367188 295.707031 L 198.058594 295.652344 L 198.164062 295.644531 L 198.765625 295.59375 L 198.925781 295.582031 L 199.617188 295.519531 L 199.679688 295.515625 L 200.316406 295.453125 L 200.472656 295.4375 L 201.171875 295.367188 L 201.867188 295.289062 L 202.015625 295.273438 L 202.703125 295.191406 L 203.410156 295.101562 L 203.539062 295.085938 L 204.238281 294.996094 L 204.949219 294.898438 L 205.0625 294.882812 L 205.726562 294.78125 L 205.765625 294.777344 L 206.484375 294.664062 L 206.566406 294.652344 L 207.238281 294.546875 L 207.28125 294.535156 L 208.007812 294.417969 L 208.050781 294.40625 L 208.746094 294.289062 L 208.792969 294.277344 L 209.527344 294.144531 L 210.253906 294.007812 L 210.289062 294 L 211.023438 293.855469 L 211.753906 293.707031 L 211.78125 293.699219 L 212.515625 293.546875 L 213.257812 293.382812 C 221.40625 291.566406 229.210938 288.839844 236.5625 285.308594 C 241.425781 282.976562 246.09375 280.289062 250.523438 277.285156 C 251.035156 276.9375 251.640625 276.753906 252.257812 276.753906 C 256.785156 276.753906 276.308594 276.753906 286.90625 276.753906 C 288.136719 276.75 289.25 277.480469 289.738281 278.605469 C 290.230469 279.734375 290 281.042969 289.160156 281.9375 C 284.804688 286.523438 280.140625 290.8125 275.191406 294.769531 C 275.191406 294.769531 278.554688 304.863281 280.945312 312.046875 C 282.367188 316.296875 280.730469 320.964844 276.976562 323.40625 C 272.449219 326.308594 267.789062 328.992188 263.007812 331.441406 C 259.007812 333.460938 254.152344 332.542969 251.175781 329.199219 C 246.132812 323.546875 239.050781 315.59375 239.050781 315.59375 C 236.621094 316.539062 234.167969 317.414062 231.6875 318.21875 C 231.136719 318.515625 230.550781 318.761719 229.9375 318.953125 C 223.523438 320.902344 216.972656 322.398438 210.335938 323.410156 C 210.335938 323.410156 208.195312 333.832031 206.65625 341.246094 C 205.753906 345.625 202.007812 348.847656 197.535156 349.089844 C 194.761719 349.226562 191.984375 349.292969 189.210938 349.289062 C 186.433594 349.292969 183.660156 349.226562 180.886719 349.089844 C 176.417969 348.847656 172.671875 345.625 171.769531 341.246094 C 170.230469 333.832031 168.085938 323.410156 168.085938 323.410156 C 161.449219 322.398438 154.902344 320.902344 148.488281 318.953125 C 147.871094 318.761719 147.289062 318.515625 146.738281 318.21875 C 144.257812 317.414062 141.800781 316.539062 139.371094 315.59375 C 139.371094 315.59375 132.292969 323.546875 127.246094 329.199219 C 124.273438 332.542969 119.410156 333.460938 115.417969 331.441406 C 110.632812 328.992188 105.972656 326.308594 101.449219 323.40625 C 97.691406 320.964844 96.058594 316.296875 97.476562 312.046875 C 99.871094 304.863281 103.230469 294.769531 103.230469 294.769531 C 95.335938 288.453125 88.15625 281.289062 81.828125 273.40625 C 81.828125 273.40625 71.714844 276.761719 64.511719 279.140625 C 60.261719 280.550781 55.59375 278.925781 53.148438 275.179688 C 50.230469 270.667969 47.539062 266.019531 45.070312 261.253906 C 43.042969 257.257812 43.96875 252.402344 47.320312 249.429688 C 52.996094 244.402344 60.964844 237.339844 60.964844 237.339844 C 57.289062 227.929688 54.660156 218.140625 53.128906 208.15625 C 53.128906 208.15625 42.6875 206.015625 35.257812 204.480469 C 30.871094 203.582031 27.644531 199.839844 27.402344 195.378906 C 27.132812 190.019531 27.132812 184.648438 27.386719 179.289062 C 27.628906 174.816406 30.863281 171.074219 35.253906 170.175781 C 42.6875 168.648438 53.128906 166.511719 53.128906 166.511719 C 54.660156 156.527344 57.289062 146.742188 60.964844 137.328125 C 60.964844 137.328125 52.996094 130.265625 47.332031 125.226562 C 43.980469 122.257812 43.058594 117.410156 45.082031 113.421875 C 47.539062 108.648438 50.230469 104 53.132812 99.480469 C 55.582031 95.734375 60.257812 94.105469 64.511719 95.515625 C 71.714844 97.90625 81.828125 101.261719 81.828125 101.261719 C 88.15625 93.378906 95.335938 86.214844 103.230469 79.898438 C 103.230469 79.898438 99.871094 69.804688 97.488281 62.613281 C 96.074219 58.375 97.707031 53.714844 101.457031 51.273438 C 105.972656 48.363281 110.632812 45.679688 115.414062 43.214844 C 119.410156 41.191406 124.277344 42.113281 127.253906 45.460938 C 129.679688 48.1875 132.578125 51.445312 134.945312 54.082031 C 137.582031 57.042969 141.742188 58.140625 145.503906 56.855469 C 145.941406 56.707031 146.378906 56.5625 146.820312 56.421875 C 147.347656 56.140625 147.90625 55.910156 148.492188 55.726562 C 153.457031 54.207031 158.507812 52.964844 163.617188 52.015625 C 165.820312 51.226562 167.65625 49.6875 168.820312 47.699219 L 171.757812 33.421875 C 172.65625 29.035156 176.40625 25.804688 180.886719 25.5625 C 183.660156 25.433594 186.433594 25.371094 189.210938 25.378906 C 191.984375 25.371094 194.765625 25.433594 197.535156 25.5625 C 202.015625 25.804688 205.765625 29.035156 206.667969 33.421875 L 209.605469 47.699219 C 210.765625 49.6875 212.605469 51.226562 214.808594 52.015625 C 219.917969 52.964844 224.964844 54.207031 229.933594 55.726562 C 230.519531 55.910156 231.078125 56.140625 231.605469 56.421875 C 232.042969 56.5625 232.484375 56.707031 232.921875 56.855469 C 236.679688 58.140625 240.839844 57.042969 243.480469 54.082031 C 245.84375 51.445312 248.742188 48.1875 251.167969 45.460938 C 254.148438 42.113281 259.011719 41.191406 263.011719 43.214844 C 267.789062 45.679688 272.449219 48.363281 276.964844 51.273438 C 280.71875 53.714844 282.351562 58.375 280.933594 62.613281 C 278.554688 69.804688 275.191406 79.898438 275.191406 79.898438 C 280.140625 83.855469 284.804688 88.144531 289.15625 92.734375 C 289.996094 93.628906 290.222656 94.933594 289.730469 96.058594 C 289.246094 97.183594 288.136719 97.910156 286.90625 97.910156 C 276.308594 97.914062 256.785156 97.914062 252.257812 97.914062 C 251.640625 97.914062 251.035156 97.726562 250.527344 97.378906 C 246.121094 94.398438 241.488281 91.730469 236.65625 89.402344 C 236.210938 89.191406 235.769531 88.976562 235.320312 88.769531 L 235.3125 88.765625 L 234.640625 88.457031 L 234 88.167969 L 233.9375 88.140625 L 233.28125 87.851562 L 232.652344 87.574219 L 232.554688 87.535156 L 231.914062 87.261719 L 231.292969 87 L 231.167969 86.945312 L 230.535156 86.6875 L 229.914062 86.4375 L 229.765625 86.375 L 229.171875 86.144531 L 229.144531 86.128906 L 228.527344 85.890625 L 228.359375 85.828125 L 227.824219 85.625 L 227.730469 85.589844 L 227.125 85.363281 L 226.949219 85.300781 L 226.445312 85.117188 L 226.308594 85.070312 L 225.710938 84.851562 L 225.527344 84.792969 L 225.046875 84.621094 L 224.882812 84.566406 L 224.285156 84.363281 L 224.101562 84.300781 L 223.628906 84.144531 L 223.449219 84.082031 L 222.847656 83.890625 L 222.667969 83.832031 L 222.199219 83.683594 L 222.003906 83.621094 L 221.40625 83.4375 L 221.234375 83.386719 L 220.757812 83.242188 L 220.554688 83.179688 L 219.949219 83 L 219.796875 82.957031 L 219.304688 82.816406 L 219.09375 82.757812 L 218.484375 82.589844 L 218.359375 82.554688 L 217.839844 82.414062 L 217.625 82.355469 L 217.070312 82.207031 L 216.996094 82.1875 L 216.9375 82.171875 L 216.367188 82.027344 L 216.15625 81.972656 L 215.628906 81.84375 L 215.503906 81.8125 L 214.882812 81.660156 L 214.675781 81.613281 L 214.164062 81.492188 L 214.015625 81.457031 L 213.390625 81.316406 L 213.1875 81.269531 L 212.6875 81.160156 L 212.519531 81.125 L 211.890625 80.992188 L 211.699219 80.949219 L 211.195312 80.847656 L 211.019531 80.8125 L 210.382812 80.6875 L 210.207031 80.652344 L 209.691406 80.554688 L 209.511719 80.519531 L 208.871094 80.402344 L 208.707031 80.375 L 208.179688 80.28125 L 207.996094 80.25 L 207.347656 80.140625 L 207.210938 80.121094 L 206.660156 80.03125 L 206.472656 80 L 205.816406 79.898438 L 205.714844 79.882812 L 205.136719 79.800781 L 204.945312 79.773438 L 204.277344 79.679688 L 204.226562 79.671875 L 203.597656 79.585938 L 203.410156 79.566406 L 202.78125 79.484375 L 202.730469 79.480469 L 202.054688 79.398438 L 201.871094 79.378906 L 201.273438 79.3125 L 201.183594 79.304688 L 200.507812 79.234375 L 200.328125 79.214844 L 199.746094 79.160156 L 199.625 79.148438 L 198.949219 79.089844 L 198.777344 79.074219 L 198.207031 79.027344 L 198.0625 79.015625 L 197.386719 78.960938 L 197.226562 78.953125 L 196.65625 78.914062 L 196.496094 78.902344 L 195.816406 78.859375 L 195.667969 78.855469 L 195.089844 78.824219 L 194.925781 78.816406 L 194.238281 78.785156 L 194.109375 78.777344 L 193.523438 78.757812 L 193.347656 78.746094 L 192.65625 78.726562 L 192.554688 78.722656 L 191.945312 78.707031 L 191.765625 78.703125 L 191.066406 78.691406 L 191.007812 78.691406 L 190.359375 78.6875 L 190.179688 78.683594 L 189.476562 78.679688 Z M 188.71875 78.683594 " fill-opacity="1" fill-rule="evenodd"/></g><g fill="#15b881" fill-opacity="1"><g transform="translate(98.906336, 233.497317)"><g><path d="M 80.992188 0 L 92.644531 -11.652344 L 92.644531 -81.574219 L 69.339844 -81.574219 L 69.339844 -55.355469 L 29.132812 -55.355469 L 29.132812 -81.574219 L 5.828125 -81.574219 L 5.828125 -43.699219 L 17.480469 -32.046875 L 69.339844 -32.046875 L 69.339844 -23.308594 L 11.652344 -23.308594 L 11.652344 0 Z M 80.992188 0 "/></g></g></g><g fill="#15b881" fill-opacity="1"><g transform="translate(197.375243, 233.497317)"><g><path d="M 80.992188 0 L 92.644531 -11.652344 L 92.644531 -81.574219 L 69.339844 -81.574219 L 69.339844 -55.355469 L 29.132812 -55.355469 L 29.132812 -81.574219 L 5.828125 -81.574219 L 5.828125 -43.699219 L 17.480469 -32.046875 L 69.339844 -32.046875 L 69.339844 -23.308594 L 11.652344 -23.308594 L 11.652344 0 Z M 80.992188 0 "/></g></g></g></svg>